<svg width="168" height="32" viewBox="0 0 168 32" fill="none" xmlns="http://www.w3.org/2000/svg">
<g clip-path="url(#clip0_1_302)">
<g clip-path="url(#clip1_1_302)">
<path d="M8.83569 17.4639C7.60129 17.4639 7.05989 17.1832 7.01658 15.9743C6.5618 16.881 5.45734 17.5502 3.72485 17.5502C1.40765 17.5502 0 16.3413 0 14.3121C0 12.1749 1.75414 11.0307 3.85479 11.0307C5.00256 11.0307 5.82549 11.2466 6.41021 11.6783L6.34524 11.0307C6.15033 8.87196 5.65224 7.59828 4.22294 7.59828C2.29555 7.59828 3.16179 10.232 1.34268 10.232C0.649683 10.232 0.151593 9.82183 0.151593 9.13102C0.151593 7.74939 1.92739 6.75635 4.2446 6.75635C6.99492 6.75635 8.77072 7.83574 9.03059 10.5342L9.48537 15.2619C9.61531 16.6867 10.6765 16.1686 10.6765 16.9026C10.6981 17.3344 9.78856 17.4639 8.83569 17.4639ZM2.79364 13.9882C2.79364 15.2835 3.42166 16.2981 4.82931 16.2981C5.80383 16.2981 6.67008 15.6505 6.69173 14.6575L6.60511 13.7076C6.45352 12.6282 5.69555 12.0237 4.65606 12.0237C3.44332 12.0237 2.79364 12.8009 2.79364 13.9882Z" fill="black"/>
<path d="M15.7509 17.5502C12.6324 17.5502 10.6617 15.3051 10.6617 12.2828C10.6617 9.00149 13.0006 6.75635 15.8592 6.75635C18.3713 6.75635 20.0821 8.13797 20.0821 9.45484C20.0821 10.1672 19.5624 10.6638 18.7395 10.6422C16.877 10.599 17.57 7.64145 15.4694 7.66304C14.17 7.66304 13.3471 8.72085 13.3471 10.9228C13.3471 13.8371 14.7981 15.6721 16.8121 15.6721C18.1981 15.6721 18.9993 15.0029 19.5407 13.9451C19.8006 13.4701 20.3204 13.686 20.2554 14.1394C20.0388 15.8448 18.4579 17.5502 15.7509 17.5502Z" fill="black"/>
<path d="M25.4302 17.5501C23.1563 17.5501 21.5104 16.4276 21.5104 13.7075V9.19561C21.5104 8.28892 20.6875 8.1378 20.6875 7.68446V7.61969C20.6875 7.4254 20.8391 7.27429 21.0773 7.23111L23.5028 6.79936C23.9359 6.713 24.2174 6.77777 24.2174 7.16635V13.3405C24.2174 15.2402 24.9104 16.039 26.2315 16.039C27.4659 16.039 28.462 15.1107 28.462 13.6211V9.19561C28.462 8.28892 27.6174 8.1378 27.6174 7.68446V7.61969C27.6174 7.44699 27.7474 7.27429 28.0073 7.23111L30.4544 6.79936C30.9308 6.73459 31.1907 6.79935 31.1907 7.14476V15.2187C31.1907 16.8809 32.2735 16.1253 32.2735 16.8593C32.2735 17.3127 31.6671 17.4638 30.5627 17.4638C29.22 17.4638 28.7869 17.0752 28.7436 15.672C28.0939 16.8593 26.9028 17.5501 25.4302 17.5501Z" fill="black"/>
<path d="M33.5096 17.3343C33.2281 17.3343 33.0332 17.2047 33.0332 16.9889V16.9025C33.0332 16.406 33.8561 16.298 33.8561 15.4345V10.016C33.8561 9.10932 33.0332 8.87185 33.0332 8.46168V8.39692C33.0332 8.2458 33.1414 8.13786 33.4446 7.98675L35.7618 6.84259C36.2816 6.60512 36.5631 6.86418 36.5631 7.23117V15.4345C36.5631 16.298 37.386 16.406 37.386 16.9025V16.9889C37.386 17.2047 37.1911 17.3343 36.9096 17.3343H33.5096ZM33.423 3.60441C33.423 2.63295 34.1593 1.94214 35.1988 1.94214C36.2383 1.94214 36.9746 2.63295 36.9746 3.60441C36.9746 4.59745 36.2383 5.26668 35.1988 5.26668C34.1593 5.26668 33.423 4.59745 33.423 3.60441Z" fill="black"/>
<path d="M42.3991 17.55C40.5583 17.55 39.3889 16.4059 39.3889 14.2471V8.09457H38.1112C37.873 8.09457 37.7214 7.92187 37.7214 7.70599V7.38217C37.7214 7.12311 37.8513 6.972 38.1112 6.972H38.5226C40.1252 6.972 40.6883 6.0869 40.8832 4.8348C40.9265 4.53257 41.0997 4.35986 41.3379 4.35986H41.6411C41.9443 4.35986 42.0959 4.53257 42.0959 4.8348V6.972H44.8029C45.0195 6.972 45.1927 7.1447 45.1927 7.38217V7.70599C45.1927 7.92187 45.0195 8.09457 44.8029 8.09457H42.0959V14.3119C42.0959 15.3049 42.6156 15.8446 43.3953 15.8446C44.3698 15.8446 44.608 15.1106 44.8029 14.463C44.8462 14.2471 45.0195 14.1607 45.1711 14.1607C45.366 14.1607 45.5609 14.2903 45.5609 14.5062C45.5609 15.9741 44.4348 17.55 42.3991 17.55Z" fill="black"/>
<path d="M48.1374 21.9758C46.6648 21.9758 45.582 21.1338 45.582 20.0113C45.582 19.2989 46.0151 18.8455 46.7081 18.8455C48.1158 18.8455 47.726 20.7021 48.8304 20.7021C49.6534 20.7021 50.2164 19.9897 51.1693 17.7661L47.1413 8.93667C46.6648 7.87886 46.0151 7.90045 46.0151 7.42551V7.33916C46.0151 7.12328 46.1884 6.97217 46.4266 6.97217H50.0648C50.2814 6.97217 50.433 7.1017 50.433 7.31757V7.38234C50.433 7.90045 49.6534 7.92204 50.0865 9.02302L52.4903 14.9381L54.8075 9.21731C55.284 8.07315 54.1362 8.00839 54.1362 7.38234V7.31757C54.1362 7.1017 54.2878 6.97217 54.5476 6.97217H56.9948C57.233 6.97217 57.4063 7.1017 57.4063 7.29599V7.38234C57.4063 7.90045 56.6699 8.09474 56.3018 8.93667L52.0139 18.8023C51.0394 21.0691 49.9566 21.9758 48.1374 21.9758Z" fill="black"/>
<path d="M72.3223 17.5297C69.507 17.5297 67.8828 16.4287 67.8828 15.1551C67.8828 14.4427 68.3592 14.0109 69.0089 14.0109C70.6764 14.0109 70.0917 16.5583 72.7338 16.5583C73.9032 16.5583 74.7045 16.1049 74.7045 15.1982C74.7045 12.4566 68.1427 14.1188 68.1427 10.1034C68.1427 8.07418 69.9835 6.75732 72.5605 6.75732C75.2242 6.75732 76.7618 7.81513 76.7618 9.19675C76.7618 9.77962 76.2854 10.233 75.7007 10.233C73.9032 10.233 74.5312 7.75036 72.214 7.75036C71.2179 7.75036 70.4382 8.16053 70.4382 9.1104C70.4382 11.7226 77.0217 10.1682 77.0217 14.2915C77.0217 16.2129 75.1376 17.5297 72.3223 17.5297Z" fill="black"/>
<path d="M83.225 17.5513C80.1065 17.5513 78.1358 15.3062 78.1358 12.2839C78.1358 9.00246 80.4747 6.75732 83.3333 6.75732C85.8454 6.75732 87.5562 8.13894 87.5562 9.45581C87.5562 10.1682 87.0364 10.6647 86.2135 10.6431C84.3511 10.6 85.0441 7.64242 82.9434 7.66401C81.6441 7.66401 80.8211 8.72182 80.8211 10.9238C80.8211 13.8382 82.2721 15.6732 84.2861 15.6732C85.6721 15.6732 86.4734 15.0039 87.0148 13.9461C87.2747 13.4712 87.7944 13.6871 87.7294 14.1404C87.5129 15.8459 85.932 17.5513 83.225 17.5513Z" fill="black"/>
<path d="M96.1743 17.357C95.8711 17.357 95.6979 17.2275 95.6979 17.0116V16.9253C95.6979 16.4287 96.4991 16.3208 96.4342 15.4357L96.131 11.2045C96.0227 9.39105 95.3081 8.24689 94.052 8.24689C92.7743 8.24689 91.9081 9.28311 91.9081 10.859V15.4573C91.9081 16.3208 92.8176 16.4072 92.8176 16.9253V16.99C92.8176 17.2059 92.6227 17.3354 92.3195 17.3354H88.7679C88.4864 17.3354 88.3131 17.2059 88.3131 16.99V16.9253C88.3131 16.4072 89.201 16.3208 89.201 15.4573V4.23155C89.201 3.30327 88.2482 3.2385 88.2482 2.78516V2.72039C88.2482 2.50452 88.3998 2.3534 88.638 2.24546L91.1284 1.20924C91.5832 1.01495 91.8647 1.16607 91.8647 1.57624L91.8431 8.39801C92.4928 7.38338 93.6189 6.75733 94.9616 6.75733C97.1055 6.75733 98.6214 8.00943 98.8813 11.3988L99.1629 15.4357C99.2278 16.3208 100.007 16.4287 100.007 16.9253V17.0116C100.007 17.2275 99.8125 17.357 99.5093 17.357H96.1743Z" fill="black"/>
<path d="M105.225 17.5513C102.431 17.5513 100.265 15.7379 100.265 12.435C100.265 9.34787 102.496 6.75732 105.398 6.75732C108.17 6.75732 109.448 8.52753 109.448 9.71486C109.448 10.4489 109.123 11.0102 108.04 11.334L103.059 12.802C103.492 14.4642 104.618 15.6732 106.264 15.6732C107.758 15.6732 108.56 14.9392 109.058 14.1188C109.253 13.795 109.816 13.9245 109.772 14.3563C109.621 15.6732 107.997 17.5513 105.225 17.5513ZM102.843 11.0965C102.843 11.2908 102.843 11.4851 102.864 11.6794L105.723 10.7943C106.546 10.5352 106.784 10.2546 106.784 9.77962C106.784 8.65705 106.134 7.62083 105.051 7.62083C103.687 7.62083 102.843 9.04564 102.843 11.0965Z" fill="black"/>
<path d="M115.064 17.5511C112.53 17.5511 110.343 15.5219 110.343 12.2837C110.343 8.916 112.682 6.75721 115.346 6.75721C116.58 6.75721 117.576 7.14579 118.291 7.85819V3.97237C118.291 3.00092 117.273 2.95774 117.273 2.46122V2.41804C117.273 2.24534 117.403 2.05105 117.663 1.9647L120.132 1.18753C120.673 1.01483 120.933 1.14436 120.933 1.5977V15.4571C120.933 16.3206 121.756 16.4717 121.756 16.9467V17.0114C121.756 17.2273 121.626 17.3352 121.366 17.3352H118.984C118.702 17.3352 118.551 17.1625 118.529 16.9035L118.443 15.6514C117.836 16.8171 116.58 17.5511 115.064 17.5511ZM113.072 11.4633C113.072 14.0107 114.133 15.9752 116.06 15.9752C117.251 15.9752 118.291 15.0685 118.291 13.5574V10.8805C118.291 9.04553 117.035 7.87978 115.671 7.87978C113.916 7.87978 113.072 9.34776 113.072 11.4633Z" fill="black"/>
<path d="M126.931 17.5511C124.657 17.5511 123.012 16.4285 123.012 13.7085V9.19659C123.012 8.2899 122.189 8.13878 122.189 7.68544V7.62067C122.189 7.42638 122.34 7.27527 122.579 7.23209L125.004 6.80033C125.437 6.71398 125.719 6.77875 125.719 7.16733V13.3415C125.719 15.2412 126.412 16.04 127.733 16.04C128.967 16.04 129.963 15.1117 129.963 13.6221V9.19659C129.963 8.2899 129.119 8.13878 129.119 7.68544V7.62067C129.119 7.44797 129.249 7.27527 129.508 7.23209L131.956 6.80033C132.432 6.73557 132.692 6.80033 132.692 7.14574V15.2196C132.692 16.8819 133.775 16.1263 133.775 16.8603C133.775 17.3136 133.168 17.4648 132.064 17.4648C130.721 17.4648 130.288 17.0762 130.245 15.673C129.595 16.8603 128.404 17.5511 126.931 17.5511Z" fill="black"/>
<path d="M134.946 17.3353C134.664 17.3353 134.491 17.2058 134.491 16.9899V16.9252C134.491 16.4071 135.292 16.3207 135.292 15.4572V4.33941C135.292 3.41113 134.491 3.23842 134.491 2.82825V2.76349C134.491 2.52602 134.686 2.43967 134.881 2.35332L137.22 1.23075C137.739 0.971699 138.021 1.25234 138.021 1.57616V15.4572C138.021 16.3207 138.931 16.4071 138.931 16.9252V16.9899C138.931 17.2058 138.736 17.3353 138.432 17.3353H134.946Z" fill="black"/>
<path d="M140.417 17.3352C140.136 17.3352 139.941 17.2057 139.941 16.9898V16.9035C139.941 16.407 140.764 16.299 140.764 15.4355V10.017C140.764 9.11029 139.941 8.87283 139.941 8.46266V8.3979C139.941 8.24678 140.049 8.13884 140.352 7.98773L142.669 6.84357C143.189 6.6061 143.471 6.86516 143.471 7.23215V15.4355C143.471 16.299 144.294 16.407 144.294 16.9035V16.9898C144.294 17.2057 144.099 17.3352 143.817 17.3352H140.417ZM140.331 3.60539C140.331 2.63393 141.067 1.94312 142.106 1.94312C143.146 1.94312 143.882 2.63393 143.882 3.60539C143.882 4.59843 143.146 5.26766 142.106 5.26766C141.067 5.26766 140.331 4.59843 140.331 3.60539Z" fill="black"/>
<path d="M153.097 17.3354C152.793 17.3354 152.62 17.2059 152.62 16.99V16.9037C152.62 16.4072 153.421 16.2992 153.356 15.4141L153.075 11.0965C152.923 9.08881 152.23 8.33324 150.974 8.33324C149.697 8.33324 148.83 9.30469 148.83 10.8374V15.4357C148.83 16.2992 149.74 16.4072 149.74 16.9037V16.99C149.74 17.2059 149.567 17.3354 149.263 17.3354H145.712C145.409 17.3354 145.235 17.2059 145.235 16.99V16.9037C145.235 16.4072 146.123 16.2992 146.123 15.4357V9.90915C146.123 8.9377 145.084 8.89452 145.084 8.398V8.33324C145.084 8.16053 145.214 8.05259 145.495 7.92307L147.769 6.84367C148.246 6.62779 148.462 6.86526 148.462 7.25384V9.00246C149.025 7.62084 150.325 6.75732 151.884 6.75732C154.028 6.75732 155.565 8.00942 155.782 11.1613L156.107 15.4141C156.172 16.2992 156.93 16.4072 156.93 16.9037V16.99C156.93 17.2059 156.735 17.3354 156.453 17.3354H153.097Z" fill="black"/>
<path d="M162.336 15.4789C159.348 15.4789 157.42 13.6871 157.42 11.1829C157.42 8.61388 159.456 6.75732 162.445 6.75732C163.852 6.75732 164.394 6.9732 166.797 6.9732C167.75 6.9732 167.815 7.25384 167.815 7.59925C167.815 8.41959 166.841 8.2253 166.083 8.398C166.949 9.06722 167.469 10.125 167.469 11.1397C167.469 12.8883 166.494 14.1836 164.957 14.7881C166.711 15.0903 167.837 15.9322 167.837 17.4002C167.837 19.2999 165.606 20.5952 162.488 20.5952C159.153 20.5952 157.334 19.0841 157.334 17.5081C157.334 16.9684 157.68 16.4287 158.438 16.4287C160.192 16.4287 159.586 19.5374 162.618 19.5374C164.35 19.5374 165.087 18.7386 165.087 17.6593C165.087 16.3208 164.004 15.4789 162.336 15.4789ZM160.084 10.3841C160.084 12.4134 160.929 14.4858 162.769 14.4858C164.025 14.4858 164.783 13.4064 164.783 11.8737C164.783 9.84439 163.96 7.77195 162.098 7.77195C160.842 7.77195 160.084 8.82976 160.084 10.3841Z" fill="black"/>
<path d="M62.2938 10.6898C63.3233 10.6898 64.1579 9.85788 64.1579 8.83161C64.1579 7.80534 63.3233 6.97339 62.2938 6.97339C61.2643 6.97339 60.4297 7.80534 60.4297 8.83161C60.4297 9.85788 61.2643 10.6898 62.2938 10.6898Z" fill="black"/>
<path d="M62.2938 17.3383C63.3233 17.3383 64.1579 16.5063 64.1579 15.48C64.1579 14.4538 63.3233 13.6218 62.2938 13.6218C61.2643 13.6218 60.4297 14.4538 60.4297 15.48C60.4297 16.5063 61.2643 17.3383 62.2938 17.3383Z" fill="black"/>
<path d="M0.830512 30.712H0V25.9031H3.01395V26.6398H0.830512V27.9057H2.85321V28.6357H0.830512V30.712Z" fill="black"/>
<path d="M7.42422 30.4776V30.712H6.61381L5.14702 28.8232H4.6045V30.712H3.77399V25.9031H5.33455C5.82348 25.9031 6.27892 25.9432 6.6339 26.1844C7.00897 26.4322 7.2032 26.8206 7.2032 27.3163C7.2032 28.187 6.64729 28.6022 6.03781 28.7429L7.42422 30.4776ZM4.6045 26.6197V28.1066H5.33455C5.97083 28.1066 6.37269 27.8856 6.37269 27.3498C6.37269 26.8005 5.97083 26.6197 5.33455 26.6197H4.6045Z" fill="black"/>
<path d="M10.2338 25.8093C11.6872 25.8093 12.6516 26.8474 12.6516 28.3142C12.6516 29.7676 11.7207 30.8058 10.2405 30.8058C8.76702 30.8058 7.82935 29.7676 7.82935 28.3142C7.82935 26.8541 8.78042 25.8093 10.2338 25.8093ZM10.2271 26.5259C9.26935 26.5259 8.69335 27.2828 8.69335 28.3008C8.69335 29.3256 9.27605 30.0891 10.2338 30.0891C11.1916 30.0891 11.7743 29.3323 11.7743 28.3075C11.7743 27.2694 11.1916 26.5259 10.2271 26.5259Z" fill="black"/>
<path d="M14.2843 28.2071V30.712H13.4738V25.9031H14.7866L15.6506 28.4683C15.7644 28.8031 15.9252 29.3323 16.0524 29.7341H16.0658C16.2065 29.3323 16.394 28.7429 16.5012 28.4214L17.3652 25.9031H18.6444V30.712H17.8206V28.274C17.8206 27.765 17.8407 27.0216 17.8407 26.6331H17.8206C17.747 26.8742 17.5259 27.5507 17.3049 28.2205L16.461 30.712H15.6305L14.6191 27.7181C14.4651 27.256 14.3847 26.9211 14.291 26.5996H14.2709C14.2776 26.9881 14.2843 27.544 14.2843 28.2071Z" fill="black"/>
<path d="M20.9747 29.4193L21.7918 29.3457C21.8856 29.8212 22.2674 30.1159 22.8501 30.1159C23.4261 30.1159 23.7609 29.8212 23.7609 29.3858C23.7609 28.9505 23.4194 28.8366 22.8635 28.6826L22.5018 28.5821C21.6445 28.341 21.1221 27.9525 21.1221 27.189C21.1221 26.3853 21.7784 25.8093 22.83 25.8093C23.8145 25.8093 24.4173 26.3183 24.5178 27.1019L23.7141 27.1689C23.6136 26.7671 23.3256 26.5326 22.8032 26.5326C22.3142 26.5326 22.0195 26.7871 22.0195 27.1421C22.0195 27.544 22.3544 27.6712 22.9036 27.8454L23.2452 27.9525C24.1092 28.2205 24.6383 28.4884 24.6383 29.3256C24.6383 30.2231 23.8882 30.8191 22.8233 30.8191C21.832 30.8191 21.1288 30.357 20.9747 29.4193Z" fill="black"/>
<path d="M27.5666 25.8093C29.02 25.8093 29.9845 26.8474 29.9845 28.3142C29.9845 29.0644 29.7233 29.6939 29.2745 30.136L29.9175 30.8928V31.1272H29.1004L28.6517 30.578C28.3369 30.7187 27.9819 30.8058 27.5733 30.8058C26.0998 30.8058 25.1622 29.7676 25.1622 28.3142C25.1622 26.8541 26.1132 25.8093 27.5666 25.8093ZM27.5599 26.5259C26.6022 26.5259 26.0262 27.2828 26.0262 28.3008C26.0262 29.3256 26.6089 30.0958 27.5666 30.0958C28.5244 30.0958 29.1071 29.3658 29.1071 28.3075C29.1071 27.2694 28.5244 26.5259 27.5599 26.5259Z" fill="black"/>
<path d="M32.715 30.1293C33.3982 30.1293 33.8068 29.7073 33.8068 28.8366V25.9031H34.6507V28.8567C34.6507 30.2498 33.9206 30.8191 32.715 30.8191C31.5095 30.8191 30.7794 30.2498 30.7794 28.8567V25.9031H31.6233V28.8366C31.6233 29.7073 32.0319 30.1293 32.715 30.1293Z" fill="black"/>
<path d="M35.1786 30.712V30.4776L36.8865 25.9031H38.1524L39.8402 30.4776V30.712H39.0097L38.5274 29.339H36.4445L35.9622 30.712H35.1786ZM36.9736 27.8588L36.699 28.6223H38.2863L38.0251 27.8588C37.8175 27.2627 37.7036 26.9211 37.6098 26.6331H37.4022C37.2951 26.9345 37.2013 27.2158 36.9736 27.8588Z" fill="black"/>
<path d="M44.1633 30.4776V30.712H43.3529L41.8861 28.8232H41.3436V30.712H40.5131V25.9031H42.0736C42.5626 25.9031 43.018 25.9432 43.373 26.1844C43.7481 26.4322 43.9423 26.8206 43.9423 27.3163C43.9423 28.187 43.3864 28.6022 42.7769 28.7429L44.1633 30.4776ZM41.3436 26.6197V28.1066H42.0736C42.7099 28.1066 43.1118 27.8856 43.1118 27.3498C43.1118 26.8005 42.7099 26.6197 42.0736 26.6197H41.3436Z" fill="black"/>
<path d="M44.915 30.712V25.9031H48.0294V26.6398H45.7388V27.8923H47.8686V28.6223H45.7388V29.9752H48.0763V30.712H44.915Z" fill="black"/>
<path d="M48.6157 29.4193L49.4328 29.3457C49.5266 29.8212 49.9083 30.1159 50.491 30.1159C51.067 30.1159 51.4019 29.8212 51.4019 29.3858C51.4019 28.9505 51.0603 28.8366 50.5044 28.6826L50.1428 28.5821C49.2855 28.341 48.763 27.9525 48.763 27.189C48.763 26.3853 49.4194 25.8093 50.471 25.8093C51.4555 25.8093 52.0583 26.3183 52.1588 27.1019L51.355 27.1689C51.2546 26.7671 50.9666 26.5326 50.4442 26.5326C49.9552 26.5326 49.6605 26.7871 49.6605 27.1421C49.6605 27.544 49.9954 27.6712 50.5446 27.8454L50.8862 27.9525C51.7502 28.2205 52.2793 28.4884 52.2793 29.3256C52.2793 30.2231 51.5292 30.8191 50.4643 30.8191C49.473 30.8191 48.7697 30.357 48.6157 29.4193Z" fill="black"/>
<path d="M53.915 30.712H53.0778V25.9031H54.8325C56.1319 25.9031 56.5739 26.5527 56.5739 27.3899C56.5739 28.3946 55.8841 28.8634 54.7656 28.8634H53.915V30.712ZM53.915 26.6197V28.1468H54.7187C55.3014 28.1468 55.7367 27.9659 55.7367 27.3899C55.7367 26.7938 55.3081 26.6197 54.7321 26.6197H53.915Z" fill="black"/>
<path d="M56.5405 30.712V30.4776L58.2484 25.9031H59.5143L61.2021 30.4776V30.712H60.3716L59.8893 29.339H57.8064L57.3241 30.712H56.5405ZM58.3355 27.8588L58.0609 28.6223H59.6482L59.387 27.8588C59.1794 27.2627 59.0655 26.9211 58.9718 26.6331H58.7641C58.657 26.9345 58.5632 27.2158 58.3355 27.8588Z" fill="black"/>
<path d="M65.1458 29.3055L65.983 29.4461C65.6883 30.203 64.9985 30.8058 63.8666 30.8058C62.4333 30.8058 61.5023 29.7475 61.5023 28.3142C61.5023 26.8809 62.4333 25.8093 63.88 25.8093C64.9315 25.8093 65.6615 26.3384 65.9562 27.1488L65.1056 27.3163C64.8779 26.8273 64.4493 26.5259 63.8666 26.5259C62.9155 26.5259 62.373 27.3096 62.373 28.3142C62.373 29.3256 62.9423 30.0891 63.9 30.0891C64.5229 30.0891 64.9248 29.7408 65.1458 29.3055Z" fill="black"/>
<path d="M66.6889 30.712V25.9031H69.8034V26.6398H67.5128V27.8923H69.6426V28.6223H67.5128V29.9752H69.8503V30.712H66.6889Z" fill="black"/>
</g>
</g>
<defs>
<clipPath id="clip0_1_302">
<rect width="168" height="31" fill="white" transform="translate(0 0.879639)"/>
</clipPath>
<clipPath id="clip1_1_302">
<rect width="168" height="31" fill="white" transform="translate(0 0.879639)"/>
</clipPath>
</defs>
</svg>
