<svg width="106" height="46" viewBox="0 0 106 46" fill="none" xmlns="http://www.w3.org/2000/svg">
<g clip-path="url(#clip0_1_201)">
<g clip-path="url(#clip1_1_201)">
<g clip-path="url(#clip2_1_201)">
<path fill-rule="evenodd" clip-rule="evenodd" d="M104.792 23.8534C104.792 16.2252 101.2 10.206 94.3342 10.206C87.4393 10.206 83.2677 16.2252 83.2677 23.7938C83.2677 32.763 88.1926 37.2923 95.2613 37.2923C98.7087 37.2923 101.316 36.4877 103.286 35.3554V29.3958C101.316 30.409 99.0564 31.0347 96.1883 31.0347C93.3782 31.0347 90.8868 30.0216 90.5681 26.5054H104.735C104.735 26.1181 104.792 24.5686 104.792 23.8534ZM90.4812 21.0226C90.4812 17.6555 92.4801 16.255 94.3053 16.255C96.0724 16.255 97.9555 17.6555 97.9555 21.0226H90.4812ZM72.0852 10.206C69.2461 10.206 67.421 11.5767 66.407 12.5303L66.0304 10.6828H59.657V45.4271L66.8995 43.8478L66.9285 35.415C67.9714 36.1897 69.5068 37.2923 72.0562 37.2923C77.2419 37.2923 81.964 33.0014 81.964 23.5555C81.935 14.9141 77.155 10.206 72.0852 10.206ZM70.347 30.7367C68.6377 30.7367 67.6238 30.111 66.9285 29.3362L66.8995 18.2812C67.6528 17.4171 68.6957 16.8211 70.347 16.8211C72.9833 16.8211 74.8084 19.8605 74.8084 23.764C74.8084 27.7569 73.0122 30.7367 70.347 30.7367ZM49.6913 8.44797L56.9628 6.83888V0.789917L49.6913 2.36921V8.44797ZM49.6913 10.7126H56.9628V36.7857H49.6913V10.7126ZM41.8983 12.9176L41.4348 10.7126H35.1772V36.7857H42.4198V19.1156C44.129 16.8211 47.026 17.2383 47.9241 17.5661V10.7126C46.9971 10.355 43.6075 9.69947 41.8983 12.9176ZM27.4132 4.24647L20.3445 5.79596L20.3156 29.664C20.3156 34.0741 23.5312 37.3221 27.8188 37.3221C30.1944 37.3221 31.9326 36.8751 32.8886 36.3387V30.2898C31.9616 30.6771 27.3843 32.0478 27.3843 27.6378V17.0595H32.8886V10.7126H27.3843L27.4132 4.24647ZM7.82944 18.2812C7.82944 17.1191 8.75649 16.6722 10.2919 16.6722C12.4936 16.6722 15.2748 17.3575 17.4765 18.5792V11.5767C15.072 10.5934 12.6964 10.206 10.2919 10.206C4.41097 10.206 0.5 13.3646 0.5 18.6388C0.5 26.863 11.5086 25.5519 11.5086 29.0979C11.5086 30.4686 10.3498 30.9155 8.72752 30.9155C6.323 30.9155 3.25216 29.9024 0.818671 28.5317V35.6236C3.51289 36.8155 6.23609 37.3221 8.72752 37.3221C14.7533 37.3221 18.896 34.2529 18.896 28.9191C18.8671 20.0393 7.82944 21.6186 7.82944 18.2812Z" fill="white"/>
</g>
</g>
</g>
<defs>
<clipPath id="clip0_1_201">
<rect width="105" height="45" fill="white" transform="translate(0.5 0.789917)"/>
</clipPath>
<clipPath id="clip1_1_201">
<rect width="105" height="45" fill="white" transform="translate(0.5 0.789917)"/>
</clipPath>
<clipPath id="clip2_1_201">
<rect width="105" height="45" fill="white" transform="translate(0.5 0.789917)"/>
</clipPath>
</defs>
</svg>
