<svg width="136" height="48" viewBox="0 0 136 48" fill="none" xmlns="http://www.w3.org/2000/svg">
<g clip-path="url(#clip0_1_248)">
<mask id="mask0_1_248" style="mask-type:luminance" maskUnits="userSpaceOnUse" x="0" y="0" width="136" height="48">
<path d="M135.5 0.789917H0.5V47.7899H135.5V0.789917Z" fill="white"/>
</mask>
<g mask="url(#mask0_1_248)">
<path d="M79.8564 13.5624C79.8564 17.0433 77.1645 19.6083 73.8609 19.6083C70.5574 19.6083 67.8655 17.0433 67.8655 13.5624C67.8655 10.057 70.5574 7.51648 73.8609 7.51648C77.1645 7.51648 79.8564 10.057 79.8564 13.5624ZM77.2318 13.5624C77.2318 11.3872 75.6717 9.89887 73.8609 9.89887C72.0502 9.89887 70.49 11.3872 70.49 13.5624C70.49 15.7158 72.0502 17.2259 73.8609 17.2259C75.6717 17.2259 77.2318 15.7131 77.2318 13.5624Z" fill="#EA4335"/>
<path d="M92.7904 13.5624C92.7904 17.0433 90.0986 19.6083 86.795 19.6083C83.4914 19.6083 80.7996 17.0433 80.7996 13.5624C80.7996 10.0597 83.4914 7.51648 86.795 7.51648C90.0986 7.51648 92.7904 10.057 92.7904 13.5624ZM90.1659 13.5624C90.1659 11.3872 88.6058 9.89887 86.795 9.89887C84.9842 9.89887 83.4241 11.3872 83.4241 13.5624C83.4241 15.7158 84.9842 17.2259 86.795 17.2259C88.6058 17.2259 90.1659 15.7131 90.1659 13.5624Z" fill="#FBBC05"/>
<path d="M105.186 7.88175V18.736C105.186 23.2009 102.583 25.0245 99.5055 25.0245C96.6088 25.0245 94.8654 23.0647 94.2079 21.4619L96.4929 20.4996C96.8998 21.4837 97.8968 22.6449 99.5028 22.6449C101.472 22.6449 102.693 21.4155 102.693 19.1013V18.2317H102.602C102.014 18.965 100.882 19.6056 99.4543 19.6056C96.466 19.6056 93.7283 16.9724 93.7283 13.5842C93.7283 10.1714 96.466 7.51648 99.4543 7.51648C100.88 7.51648 102.011 8.15705 102.602 8.8685H102.693V7.88447H105.186V7.88175ZM102.879 13.5842C102.879 11.4553 101.475 9.89887 99.6887 9.89887C97.8779 9.89887 96.3609 11.4553 96.3609 13.5842C96.3609 15.6913 97.8779 17.2259 99.6887 17.2259C101.475 17.2259 102.879 15.6913 102.879 13.5842Z" fill="#4285F4"/>
<path d="M109.295 1.52039V19.2383H106.735V1.52039H109.295Z" fill="#34A853"/>
<path d="M119.27 15.553L121.307 16.9268C120.65 17.9109 119.065 19.6063 116.328 19.6063C112.932 19.6063 110.397 16.9514 110.397 13.5604C110.397 9.96506 112.954 7.51453 116.034 7.51453C119.135 7.51453 120.652 10.0114 121.148 11.3607L121.42 12.0476L113.431 15.3949C114.042 16.6079 114.994 17.2267 116.328 17.2267C117.664 17.2267 118.591 16.5616 119.27 15.553ZM113 13.3778L118.34 11.1344C118.047 10.3794 117.163 9.8533 116.123 9.8533C114.789 9.8533 112.932 11.0445 113 13.3778Z" fill="#EA4335"/>
<path d="M58.1758 11.9905V9.42551H66.7204C66.8039 9.87255 66.847 10.4014 66.847 10.9738C66.847 12.8982 66.327 15.2779 64.6509 16.9733C63.0207 18.6906 60.9378 19.6065 58.1785 19.6065C53.0642 19.6065 48.7637 15.3924 48.7637 10.2187C48.7637 5.04508 53.0642 0.830933 58.1785 0.830933C61.0078 0.830933 63.0234 1.95398 64.5378 3.41776L62.7485 5.22772C61.6626 4.19735 60.1914 3.39595 58.1758 3.39595C54.4412 3.39595 51.5202 6.44072 51.5202 10.2187C51.5202 13.9967 54.4412 17.0415 58.1758 17.0415C60.5983 17.0415 61.9779 16.0575 62.8617 15.1634C63.5785 14.4383 64.05 13.4025 64.236 11.9878L58.1758 11.9905Z" fill="#4285F4"/>
<path d="M55.7762 29.1354L53.1449 36.4984H58.5136L55.8611 29.1354H55.7762ZM50.8743 42.8739H48.5825L54.6515 26.5594H57.007L63.0759 42.8739H60.7842L59.2351 38.4518H52.4446L50.8743 42.8739Z" fill="#747474"/>
<path d="M64.1206 31.7116H66.1153V33.2572H66.2002C66.5079 32.7151 66.9906 32.2643 67.6432 31.9048C68.3063 31.5345 68.9853 31.3466 69.6803 31.3466C71.0384 31.3466 72.0782 31.7438 72.7997 32.5273C73.5318 33.3001 73.9031 34.411 73.9031 35.8546V42.8741H71.8235V36.0048C71.7811 34.1748 70.8739 33.2572 69.1074 33.2572C68.2851 33.2572 67.5901 33.6006 67.0278 34.2875C66.4761 34.9637 66.2002 35.7634 66.2002 36.6918V42.8741H64.1206V31.7116Z" fill="#747474"/>
<path d="M77.7414 39.4609C77.7414 40.0083 77.9642 40.4645 78.4204 40.8348C78.8714 41.1944 79.4072 41.3714 80.0332 41.3714C80.8926 41.3714 81.6671 41.0495 82.3462 40.4055C83.0358 39.7507 83.386 38.9779 83.386 38.0871C82.7334 37.5719 81.8263 37.3143 80.6698 37.3143C79.8316 37.3143 79.1313 37.5236 78.569 37.9368C78.0173 38.3393 77.7414 38.8491 77.7414 39.4609ZM80.4151 31.3466C81.943 31.3466 83.1419 31.7652 84.0226 32.5917C84.9138 33.4235 85.3594 34.5612 85.3594 36.0048V42.8741H83.386V41.3285H83.3011C82.4364 42.6058 81.2905 43.239 79.8634 43.239C78.6432 43.239 77.6247 42.8741 76.8077 42.1442C76.0013 41.4144 75.5981 40.5074 75.5981 39.418C75.5981 38.2588 76.0279 37.3465 76.8926 36.6703C77.752 35.9834 78.9085 35.6399 80.3515 35.6399C81.5822 35.6399 82.5902 35.8653 83.386 36.3054V35.8331C83.386 35.1033 83.0942 34.4915 82.5159 33.987C81.9483 33.4718 81.2852 33.2142 80.5212 33.2142C79.3594 33.2142 78.447 33.7079 77.7838 34.6954L75.9589 33.5362C76.9615 32.0765 78.447 31.3466 80.4151 31.3466Z" fill="#747474"/>
<path d="M89.698 26.5594V42.8739H87.6184V26.5594H89.698Z" fill="#747474"/>
<path d="M101.923 31.7118L95.0054 47.7901H92.8834L95.451 42.1659L90.8887 31.7118H93.138L96.4272 39.7402H96.4696L99.6738 31.7118H101.923Z" fill="#747474"/>
<path d="M107.619 43.0451C106.728 43.0451 105.986 42.7661 105.391 42.2079C104.797 41.6498 104.489 40.8717 104.479 39.8681V33.6214H102.527V31.7109H104.479V28.2977H106.537V31.7109H109.253V33.6214H106.537V39.1812C106.537 39.9271 106.675 40.437 106.962 40.7053C107.259 40.9629 107.582 41.0917 107.938 41.0917C108.108 41.0917 108.267 41.081 108.426 41.0488C108.58 41.0058 108.728 40.9575 108.871 40.8985L109.508 42.7661C108.967 42.9485 108.341 43.0451 107.619 43.0451Z" fill="#747474"/>
<path d="M113.789 27.8687C113.789 28.2712 113.64 28.6201 113.343 28.9206C113.057 29.2104 112.717 29.3499 112.325 29.3499C111.911 29.3499 111.566 29.2104 111.285 28.9206C110.999 28.6201 110.861 28.2712 110.861 27.8687C110.861 27.4555 110.999 27.1067 111.285 26.8169C111.566 26.5325 111.911 26.3876 112.325 26.3876C112.717 26.3876 113.057 26.5325 113.343 26.8169C113.64 27.1067 113.789 27.4555 113.789 27.8687ZM113.365 31.7112V42.8738H111.285V31.7112H113.365Z" fill="#747474"/>
<path d="M120.35 43.239C118.705 43.239 117.347 42.6755 116.276 41.5432C115.215 40.4001 114.684 38.9833 114.684 37.2928C114.684 35.5755 115.215 34.1587 116.276 33.0425C117.347 31.9155 118.705 31.3466 120.35 31.3466C121.48 31.3466 122.461 31.6364 123.299 32.2053C124.132 32.7795 124.764 33.5684 125.188 34.5666L123.299 35.3609C122.716 33.9602 121.692 33.2572 120.223 33.2572C119.273 33.2572 118.451 33.6435 117.761 34.4163C117.082 35.1891 116.742 36.1497 116.742 37.2928C116.742 38.4413 117.082 39.3965 117.761 40.1693C118.451 40.9421 119.273 41.3285 120.223 41.3285C121.735 41.3285 122.796 40.6309 123.406 39.2248L125.252 40.0191C124.854 41.0226 124.223 41.8115 123.363 42.3804C122.498 42.9492 121.496 43.239 120.35 43.239Z" fill="#747474"/>
<path d="M135.5 39.7829C135.5 40.7597 135.076 41.5807 134.227 42.2516C133.389 42.9063 132.338 43.239 131.065 43.239C129.962 43.239 128.986 42.9439 128.137 42.3589C127.299 41.7739 126.699 41.0012 126.333 40.0405L128.179 39.2463C128.46 39.9225 128.858 40.443 129.368 40.8133C129.887 41.189 130.455 41.3714 131.065 41.3714C131.728 41.3714 132.28 41.2319 132.72 40.9421C133.171 40.6577 133.399 40.3142 133.399 39.9117C133.399 39.198 132.853 38.6774 131.765 38.3447L129.877 37.8724C127.723 37.3143 126.651 36.2624 126.651 34.7169C126.651 33.7026 127.06 32.8869 127.882 32.2697C128.699 31.6579 129.749 31.3466 131.023 31.3466C131.999 31.3466 132.879 31.5828 133.675 32.055C134.466 32.5273 135.017 33.1606 135.33 33.9441L133.484 34.7169C133.272 34.2446 132.922 33.8797 132.444 33.6221C131.978 33.3537 131.452 33.2142 130.874 33.2142C130.333 33.2142 129.845 33.3537 129.41 33.6221C128.986 33.8958 128.773 34.2339 128.773 34.631C128.773 35.2643 129.368 35.7204 130.556 36.0048L132.211 36.4342C134.402 36.9816 135.5 38.0978 135.5 39.7829Z" fill="#747474"/>
<path d="M28.9841 6.29086V40.8682C28.9841 44.7402 31.6221 46.8931 34.422 46.8931C37.0115 46.8931 39.8599 45.0594 39.8599 40.8682V6.55281C39.8599 3.0083 37.2704 0.789917 34.422 0.789917C31.5736 0.789917 28.9841 3.23751 28.9841 6.29086Z" fill="#F8AB00"/>
<path d="M14.7419 23.8416V40.8684C14.7419 44.7403 17.38 46.8932 20.1798 46.8932C22.7693 46.8932 25.6177 45.0596 25.6177 40.8684V24.1036C25.6177 20.5591 23.0282 18.3407 20.1798 18.3407C17.3314 18.3407 14.7419 20.7883 14.7419 23.8416Z" fill="#E37300"/>
<path d="M11.3757 41.3924C11.3757 44.4294 8.94002 46.8934 5.93787 46.8934C2.93571 46.8934 0.5 44.4294 0.5 41.3924C0.5 38.3554 2.93571 35.8915 5.93787 35.8915C8.94002 35.8915 11.3757 38.3554 11.3757 41.3924Z" fill="#E37300"/>
</g>
</g>
<defs>
<clipPath id="clip0_1_248">
<rect width="135" height="47" fill="white" transform="translate(0.5 0.789917)"/>
</clipPath>
</defs>
</svg>
