<svg width="138" height="44" viewBox="0 0 138 44" fill="none" xmlns="http://www.w3.org/2000/svg">
<g clip-path="url(#clip0_1_215)">
<mask id="mask0_1_215" style="mask-type:luminance" maskUnits="userSpaceOnUse" x="4" y="0" width="130" height="36">
<path d="M134 0.789917H4V35.7899H134V0.789917Z" fill="white"/>
</mask>
<g mask="url(#mask0_1_215)">
<g filter="url(#filter0_d_1_215)">
<path d="M34.5277 24.6826L34.5095 24.6252L46.0683 14.151V9.10437H27.524V14.151H38.6006L38.6188 14.1994L27.1729 24.6826V29.7294H46.2544V24.6826H34.5277Z" fill="#FFFDF9"/>
<path d="M57.637 8.6239C55.498 8.6239 53.7547 8.94323 52.4071 9.58187C51.1521 10.1385 50.0946 11.0555 49.3724 12.214C48.6815 13.3801 48.2476 14.6778 48.0994 16.0216L53.7261 16.8044C53.9296 15.6177 54.3368 14.7766 54.9473 14.281C55.6415 13.7627 56.4969 13.5007 57.3653 13.5406C58.5072 13.5406 59.3356 13.8428 59.8506 14.4472C60.3605 15.0516 60.62 15.8887 60.62 16.9917V17.5417H55.2099C52.456 17.5417 50.4776 18.1461 49.2749 19.3549C48.0718 20.5637 47.4715 22.1593 47.4736 24.1417C47.4736 26.1724 48.0739 27.6835 49.2749 28.6746C50.4755 29.6659 51.9859 30.1585 53.8056 30.1523C56.0627 30.1523 57.799 29.3838 59.0139 27.8467C59.7315 26.9019 60.244 25.8206 60.5191 24.6705H60.7237L61.4993 29.7171H66.5979V16.9373C66.5979 14.2961 65.8946 12.2503 64.4882 10.7997C63.0816 9.3492 60.7981 8.6239 57.637 8.6239ZM59.4201 24.3774C58.6109 25.0452 57.5517 25.3777 56.2327 25.3777C55.1457 25.3777 54.3906 25.1893 53.9673 24.8126C53.7612 24.6343 53.5968 24.4133 53.4866 24.1652C53.3764 23.9172 53.3225 23.6481 53.3293 23.3771C53.3171 23.1216 53.3579 22.8663 53.4486 22.6268C53.5394 22.3873 53.6785 22.1686 53.8574 21.984C54.0508 21.8044 54.2791 21.6655 54.5284 21.5756C54.7778 21.4858 55.0427 21.4468 55.3076 21.4612H60.6291V21.8087C60.64 22.3 60.5365 22.7871 60.3269 23.2324C60.1171 23.6778 59.8069 24.0696 59.4201 24.3774Z" fill="#FFFDF9"/>
<path d="M97.4255 9.10437H91.4019V29.7322H97.4255V9.10437Z" fill="#FFFDF9"/>
<path d="M132.988 9.10437C131.287 9.10437 129.946 9.69868 128.965 10.8873C128.26 11.7415 127.725 13.0037 127.359 14.6738H127.181L126.394 9.10437H121.249V29.7294H127.273V19.1524C127.273 17.8187 127.589 16.7963 128.22 16.0851C128.85 15.3739 130.015 15.0183 131.712 15.0183H133.999V9.10437H132.988Z" fill="#FFFDF9"/>
<path d="M115.278 9.77892C113.871 8.95091 112.098 8.53791 109.956 8.53992C106.586 8.53992 103.948 9.48983 102.043 11.3896C100.138 13.2894 99.1852 15.9085 99.1852 19.2467C99.1366 21.265 99.5817 23.2649 100.483 25.0761C101.307 26.6901 102.592 28.0296 104.177 28.929C105.773 29.8419 107.671 30.2992 109.871 30.301C111.774 30.301 113.364 30.0109 114.64 29.4309C115.84 28.9097 116.884 28.0929 117.674 27.0586C118.427 26.0431 118.986 24.9001 119.323 23.686L114.133 22.2475C113.915 23.0371 113.494 23.7574 112.912 24.3387C112.325 24.919 111.343 25.2091 109.965 25.2091C108.327 25.2091 107.106 24.7447 106.302 23.8159C105.719 23.1451 105.352 22.1871 105.19 20.9451H119.403C119.461 20.3649 119.491 19.8783 119.491 19.4855V18.2011C119.525 16.4757 119.165 14.765 118.438 13.1968C117.757 11.7681 116.655 10.5768 115.278 9.77892ZM109.782 13.4566C112.225 13.4566 113.61 14.6463 113.937 17.0256H105.297C105.435 16.2317 105.767 15.4834 106.265 14.8468C107.057 13.918 108.229 13.4546 109.782 13.4566Z" fill="#FFFDF9"/>
<path d="M94.4782 0.791852C94.025 0.776597 93.5734 0.851663 93.1501 1.01259C92.7268 1.17353 92.3407 1.41703 92.0144 1.72864C91.6928 2.04324 91.4406 2.42061 91.2739 2.83678C91.1073 3.25295 91.0298 3.69883 91.0467 4.14619C91.0303 4.59643 91.1081 5.04515 91.2747 5.46435C91.4416 5.88358 91.6938 6.26428 92.0157 6.5827C92.3379 6.90113 92.7227 7.15045 93.1462 7.31513C93.57 7.47981 94.0234 7.5563 94.4782 7.53982C94.9301 7.55673 95.3809 7.48027 95.8013 7.31534C96.2217 7.15042 96.6029 6.90061 96.9206 6.58185C97.2357 6.2598 97.4817 5.87802 97.6437 5.45943C97.8059 5.04085 97.8808 4.59416 97.8639 4.14619C97.8847 3.70086 97.8116 3.25613 97.6489 2.8404C97.4864 2.42466 97.2381 2.04706 96.9198 1.73168C96.6013 1.41632 96.2202 1.17012 95.8003 1.00881C95.3804 0.847509 94.9311 0.774651 94.4813 0.794877L94.4782 0.791852Z" fill="#FFFDF9"/>
<path d="M82.0364 8.53992C79.985 8.53992 78.3364 9.17754 77.0907 10.4528C76.1685 11.3976 75.4919 12.8079 75.0603 14.6835H74.8679L74.0804 9.11407H68.9358V35.6591H74.9595V24.7255H75.1794C75.3632 25.4546 75.6209 26.1633 75.9488 26.8409C76.4584 27.9446 77.294 28.8698 78.3454 29.4942C79.4356 30.083 80.6636 30.3761 81.9051 30.3434C84.4271 30.3434 86.3475 29.3714 87.6665 27.4271C88.9852 25.483 89.6448 22.7703 89.6448 19.289C89.6448 15.9266 89.0068 13.2945 87.7304 11.3926C86.4543 9.49084 84.5563 8.53992 82.0364 8.53992ZM82.6472 23.4865C81.9449 24.4939 80.8459 24.9975 79.3498 24.9975C78.7331 25.0257 78.1182 24.908 77.5566 24.6542C76.9948 24.4004 76.5023 24.0177 76.1198 23.5379C75.3401 22.5689 74.9514 21.2422 74.9535 19.558V19.1651C74.9535 17.4547 75.3422 16.1452 76.1198 15.2366C76.8972 14.328 77.9739 13.8787 79.3498 13.8888C80.8724 13.8888 81.9784 14.3672 82.6685 15.3242C83.3585 16.2812 83.7035 17.6159 83.7035 19.3283C83.7077 21.0992 83.3575 22.4852 82.6531 23.4865H82.6472Z" fill="#FFFDF9"/>
<path d="M24.8401 24.6825H4V29.7353H24.8401V24.6825Z" fill="#FF4F00"/>
</g>
</g>
</g>
<defs>
<filter id="filter0_d_1_215" x="0" y="0.789917" width="137.999" height="42.8693" filterUnits="userSpaceOnUse" color-interpolation-filters="sRGB">
<feFlood flood-opacity="0" result="BackgroundImageFix"/>
<feColorMatrix in="SourceAlpha" type="matrix" values="0 0 0 0 0 0 0 0 0 0 0 0 0 0 0 0 0 0 127 0" result="hardAlpha"/>
<feOffset dy="4"/>
<feGaussianBlur stdDeviation="2"/>
<feComposite in2="hardAlpha" operator="out"/>
<feColorMatrix type="matrix" values="0 0 0 0 0 0 0 0 0 0 0 0 0 0 0 0 0 0 0.25 0"/>
<feBlend mode="normal" in2="BackgroundImageFix" result="effect1_dropShadow_1_215"/>
<feBlend mode="normal" in="SourceGraphic" in2="effect1_dropShadow_1_215" result="shape"/>
</filter>
<clipPath id="clip0_1_215">
<rect width="138" height="43" fill="white" transform="translate(0 0.789917)"/>
</clipPath>
</defs>
</svg>
