<svg width="142" height="37" viewBox="0 0 142 37" fill="none" xmlns="http://www.w3.org/2000/svg">
<g clip-path="url(#clip0_1_208)">
<g clip-path="url(#clip1_1_208)">
<path d="M29.5128 0.289917H5.92108C2.65059 0.289917 0 2.94051 0 6.211V29.8027C0 33.0731 2.65059 35.7237 5.92108 35.7237H29.5128C32.7832 35.7237 35.4338 33.0731 35.4338 29.8027V6.211C35.4338 2.94051 32.7832 0.289917 29.5128 0.289917ZM28.9926 27.4121C28.9926 28.4453 28.1554 29.2825 27.1222 29.2825H8.3116C7.27844 29.2825 6.44122 28.4453 6.44122 27.4121V8.60152C6.44122 7.56836 7.27844 6.73114 8.3116 6.73114H27.1222C28.1554 6.73114 28.9926 7.56836 28.9926 8.60152V27.4121ZM13.9584 22.8164C13.3634 22.8164 12.886 22.3354 12.886 21.7404V14.2304C12.886 13.6355 13.3634 13.151 13.9584 13.151H21.479C22.0704 13.151 22.5514 13.6319 22.5514 14.2304V21.7369C22.5514 22.3318 22.0704 22.8128 21.479 22.8128H13.9584V22.8164ZM44.8285 22.3033H48.6975C48.8899 24.4944 50.3755 26.2044 53.3716 26.2044C56.0472 26.2044 57.6931 24.8827 57.6931 22.8841C57.6931 21.0137 56.4034 20.1765 54.0806 19.6278L51.0809 18.983C47.8246 18.274 45.3736 16.1792 45.3736 12.7591C45.3736 8.98628 48.726 6.40694 53.0795 6.40694C57.6895 6.40694 60.6572 8.82596 60.9137 12.4028H57.173C56.7276 10.7284 55.3382 9.73087 53.0831 9.73087C50.6961 9.73087 49.0537 11.0205 49.0537 12.6664C49.0537 14.3124 50.4717 15.3099 52.9227 15.8586L55.8904 16.5034C59.1466 17.2124 61.3697 19.1789 61.3697 22.6275C61.3697 27.0131 58.0814 29.6245 53.3752 29.6245C48.0847 29.621 45.1527 26.7531 44.8285 22.3033ZM75.2105 35.7237V29.3075L75.4635 26.493H75.2105C74.3234 28.5166 72.4602 29.6245 69.9307 29.6245C65.8515 29.6245 62.8161 26.3042 62.8161 21.2132C62.8161 16.1222 65.8515 12.8018 69.9307 12.8018C72.4281 12.8018 74.1987 13.9704 75.2105 15.8051H75.4635V13.1153H78.8159V35.7237H75.2105ZM75.3352 21.2096C75.3352 17.9534 73.3437 16.0545 70.9069 16.0545C68.47 16.0545 66.4785 17.9534 66.4785 21.2096C66.4785 24.4659 68.47 26.3647 70.9069 26.3647C73.3437 26.3647 75.3352 24.4694 75.3352 21.2096ZM81.4914 22.8876V13.1153H85.0968V22.5705C85.0968 25.1321 86.3294 26.3647 88.3851 26.3647C90.9145 26.3647 92.5605 24.562 92.5605 21.7476V13.1153H96.1658V29.3039H92.8134V25.9515H92.5605C91.7696 28.1033 90.031 29.621 87.3448 29.621C83.4829 29.621 81.4914 27.1556 81.4914 22.8876ZM98.3604 24.7829C98.3604 21.7476 100.48 19.977 104.242 19.7561L108.699 19.4711V18.2063C108.699 16.6887 107.591 15.7731 105.632 15.7731C103.829 15.7731 102.753 16.6887 102.468 17.9854H98.8628C99.244 14.6971 101.962 12.7983 105.628 12.7983C109.771 12.7983 112.301 14.5689 112.301 17.9854V29.3039H108.949V26.3006H108.696C107.937 28.2921 106.355 29.621 103.32 29.621C100.416 29.621 98.3604 27.6615 98.3604 24.7829ZM108.703 22.7914V21.9364L105.065 22.1893C103.106 22.314 102.219 23.0444 102.219 24.4979C102.219 25.7306 103.231 26.6177 104.652 26.6177C107.217 26.6177 108.703 24.9753 108.703 22.7914ZM114.991 29.3075V13.1153H118.343V16.2148H118.596C119.07 14.0951 120.684 13.1153 123.085 13.1153H124.731V16.3716H122.675C120.335 16.3716 118.596 17.8893 118.596 20.7679V29.3039H114.991V29.3075ZM141.226 21.8758H128.924C129.113 24.8471 131.201 26.5251 133.509 26.5251C135.469 26.5251 136.701 25.7341 137.4 24.4053H140.973C139.993 27.6936 137.115 29.621 133.477 29.621C128.703 29.621 125.351 26.0477 125.351 21.2096C125.351 16.3716 128.796 12.7983 133.509 12.7983C138.251 12.7983 141.351 16.0545 141.351 20.1016C141.354 20.8961 141.29 21.3058 141.226 21.8758ZM137.781 19.3784C137.656 17.134 135.789 15.6163 133.513 15.6163C131.361 15.6163 129.562 16.9772 129.117 19.3784H137.781Z" fill="#1A1A1A"/>
</g>
</g>
<defs>
<clipPath id="clip0_1_208">
<rect width="142" height="36" fill="white" transform="translate(0 0.289917)"/>
</clipPath>
<clipPath id="clip1_1_208">
<rect width="142" height="36" fill="white" transform="translate(0 0.289917)"/>
</clipPath>
</defs>
</svg>
