<svg width="134" height="36" viewBox="0 0 134 36" fill="none" xmlns="http://www.w3.org/2000/svg">
<mask id="mask0_1_233" style="mask-type:luminance" maskUnits="userSpaceOnUse" x="0" y="0" width="134" height="36">
<path d="M0.600098 0.873901H133.4V35.7151H0.600098V0.873901Z" fill="white"/>
</mask>
<g mask="url(#mask0_1_233)">
<path d="M49.0481 21.9901C50.9772 21.9885 52.8422 21.3047 54.3067 20.0621C55.7711 18.8195 56.7386 17.0998 57.0345 15.2134C57.6585 11.2812 54.5537 7.84856 50.1545 7.84856H43.0641C42.9311 7.84686 42.802 7.89281 42.7005 7.97792C42.5991 8.06303 42.5321 8.18158 42.5121 8.31168L39.3521 28.1603C39.3407 28.2328 39.3452 28.3069 39.3655 28.3775C39.3857 28.4481 39.4211 28.5136 39.4693 28.5694C39.5174 28.6252 39.5772 28.67 39.6446 28.7008C39.7119 28.7316 39.7851 28.7476 39.8593 28.7477H43.6113C43.744 28.7491 43.8727 28.7029 43.9738 28.6179C44.075 28.5328 44.1417 28.4145 44.1617 28.2846L45.0913 22.454C45.1112 22.3239 45.1779 22.2053 45.2792 22.12C45.3805 22.0347 45.5095 21.9886 45.6425 21.9901H49.0481ZM52.1881 15.0345C51.9561 16.488 50.8209 17.5591 48.6481 17.5591H45.8689L46.7113 12.2708H49.4401C51.6881 12.2755 52.4185 13.5873 52.1881 15.0385V15.0345ZM73.2905 14.1003H69.7281C69.5951 14.0988 69.4661 14.1448 69.3647 14.2299C69.2633 14.315 69.1963 14.4334 69.1761 14.5635L69.0609 15.295C69.0609 15.295 66.2953 12.3064 61.4009 14.3252C58.5929 15.4818 57.2457 17.8718 56.6729 19.6214C56.6729 19.6214 54.8513 24.9398 58.9689 27.8682C58.9689 27.8682 62.7857 30.6834 67.0849 27.694L67.0105 28.1603C66.9989 28.2329 67.0034 28.307 67.0236 28.3777C67.0437 28.4483 67.0791 28.5138 67.1273 28.5697C67.1755 28.6255 67.2354 28.6703 67.3028 28.7011C67.3702 28.7318 67.4435 28.7477 67.5177 28.7477H71.0785C71.2115 28.7494 71.3406 28.7035 71.442 28.6184C71.5435 28.5333 71.6104 28.4147 71.6305 28.2846L73.7969 14.6877C73.8083 14.6152 73.8037 14.5411 73.7835 14.4705C73.7633 14.3999 73.7279 14.3345 73.6797 14.2787C73.6315 14.2229 73.5717 14.1781 73.5044 14.1473C73.4371 14.1165 73.3646 14.1005 73.2905 14.1003ZM68.0529 21.6148C67.9135 22.5622 67.4316 23.4274 66.6967 24.0499C65.9617 24.6724 65.0235 25.01 64.0561 25C63.6773 25.0043 63.3001 24.9495 62.9385 24.8377C61.4025 24.35 60.5265 22.8886 60.7785 21.3053C60.918 20.3553 61.4019 19.488 62.1399 18.865C62.8779 18.242 63.8197 17.9059 64.7897 17.9193C65.1689 17.9154 65.5465 17.9708 65.9081 18.0824C67.4385 18.5685 68.3089 20.0299 68.0569 21.6148H68.0529Z" fill="#003087"/>
<path d="M100.338 21.9901C102.268 21.9895 104.134 21.3063 105.6 20.0636C107.066 18.821 108.035 17.1007 108.331 15.2134C108.955 11.2812 105.851 7.84854 101.45 7.84854H94.3618C94.229 7.8472 94.1001 7.89329 93.9989 7.97836C93.8977 8.06343 93.8308 8.18177 93.8106 8.31167L90.641 28.1659C90.6229 28.2752 90.6416 28.3874 90.6944 28.4852C90.7472 28.5829 90.8311 28.6607 90.933 28.7066C91.0004 28.7377 91.0738 28.7539 91.1482 28.7541H94.901C95.0339 28.7554 95.1629 28.7092 95.2641 28.6239C95.3654 28.5387 95.4322 28.4202 95.4522 28.2901L96.3826 22.4595C96.4023 22.3293 96.469 22.2106 96.5703 22.1253C96.6717 22.04 96.8008 21.994 96.9338 21.9956L100.338 21.9901ZM103.478 15.0345C103.246 16.488 102.111 17.5591 99.937 17.5591H97.1586L98.0018 12.2708H100.731C102.977 12.2755 103.709 13.5873 103.478 15.0384V15.0345ZM124.579 14.1003H121.021C120.888 14.099 120.759 14.1451 120.658 14.2301C120.557 14.3152 120.49 14.4335 120.47 14.5634L120.353 15.2949C120.353 15.2949 117.588 12.3064 112.694 14.3251C109.887 15.4818 108.539 17.8718 107.965 19.6214C107.965 19.6214 106.144 24.9398 110.261 27.8682C110.261 27.8682 114.079 30.6834 118.378 27.694L118.303 28.1603C118.285 28.2697 118.304 28.3819 118.357 28.4796C118.41 28.5774 118.493 28.6552 118.595 28.701C118.663 28.7327 118.736 28.7485 118.811 28.7485H122.371C122.505 28.7505 122.634 28.7045 122.735 28.6192C122.837 28.5338 122.903 28.4149 122.923 28.2846L125.09 14.6877C125.1 14.615 125.095 14.5408 125.075 14.4701C125.055 14.3994 125.019 14.3338 124.971 14.2776C124.923 14.2213 124.863 14.1762 124.795 14.1456C124.728 14.1149 124.654 14.0995 124.579 14.1003ZM119.343 21.6148C119.205 22.5629 118.723 23.429 117.988 24.0519C117.253 24.6747 116.314 25.0117 115.346 25C114.966 25.0044 114.589 24.9496 114.227 24.8377C112.69 24.35 111.813 22.8886 112.065 21.3053C112.204 20.3578 112.686 19.4924 113.421 18.8697C114.156 18.247 115.094 17.9094 116.062 17.9193C116.442 17.9154 116.819 17.97 117.181 18.0824C118.727 18.5685 119.6 20.0299 119.347 21.6148H119.343Z" fill="#0070E0"/>
<path d="M86.3642 14.435L82.0706 21.6067L79.8922 14.4881C79.858 14.3751 79.7878 14.2761 79.692 14.2059C79.5963 14.1357 79.4801 14.0981 79.361 14.0986H75.4874C75.4206 14.0973 75.3545 14.1121 75.2948 14.1417C75.235 14.1712 75.1835 14.2147 75.1444 14.2683C75.1054 14.322 75.0801 14.3842 75.0707 14.4496C75.0614 14.5151 75.0682 14.5818 75.0906 14.644L78.9946 26.6346L75.4642 32.2855C75.4243 32.3477 75.4021 32.4194 75.3999 32.4931C75.3978 32.5667 75.4158 32.6395 75.452 32.7039C75.4882 32.7683 75.5413 32.8218 75.6057 32.8588C75.6701 32.8958 75.7433 32.9149 75.8178 32.9141H79.9914C80.1107 32.9147 80.2282 32.8845 80.3321 32.8265C80.4361 32.7685 80.523 32.6846 80.5842 32.5832L91.4898 14.7295C91.529 14.6672 91.5506 14.5956 91.5522 14.5222C91.5538 14.4487 91.5354 14.3763 91.4989 14.3123C91.4624 14.2484 91.4091 14.1954 91.3447 14.1589C91.2803 14.1224 91.2072 14.1037 91.133 14.1049H86.961C86.841 14.1035 86.7228 14.1333 86.6181 14.1912C86.5134 14.2491 86.4258 14.3332 86.3642 14.435Z" fill="#003087"/>
<path d="M128.586 8.30581L125.416 28.16C125.398 28.2694 125.417 28.3816 125.47 28.4793C125.522 28.577 125.606 28.6548 125.708 28.7007C125.775 28.7324 125.849 28.7482 125.923 28.7482H129.675C129.808 28.7498 129.937 28.7038 130.038 28.6185C130.139 28.5332 130.206 28.4145 130.226 28.2843L133.396 8.4301C133.408 8.35758 133.404 8.28337 133.383 8.21267C133.363 8.14198 133.328 8.07649 133.279 8.02081C133.231 7.96509 133.171 7.92034 133.104 7.8896C133.036 7.85886 132.963 7.84286 132.889 7.84268H129.137C129.004 7.84134 128.875 7.88743 128.774 7.9725C128.673 8.05757 128.606 8.17591 128.586 8.30581Z" fill="#0070E0"/>
<path d="M28.7169 16.9136C27.9121 21.4538 24.1689 24.8857 19.2569 24.8857H16.1385C15.5025 24.8857 14.8617 25.4683 14.7601 26.1128L13.3945 34.6905C13.3153 35.1789 13.0841 35.3412 12.5841 35.3412H7.5681C7.0609 35.3412 6.9409 35.1734 7.0169 34.6786L7.5929 28.7466L1.5721 28.4387C1.0657 28.4387 0.882503 28.1655 0.954503 27.6652L5.0625 1.88856C5.1417 1.4001 5.4489 1.19031 5.9473 1.19031H16.3657C21.3809 1.19031 24.5537 4.53114 24.9417 8.86314C27.9257 10.8581 29.3209 13.5126 28.7177 16.9128L28.7169 16.9136Z" fill="#001C64"/>
<path d="M9.1193 19.1419L7.59366 28.7472L6.62886 34.7734C6.61094 34.8895 6.61851 35.0082 6.65106 35.1212C6.6836 35.2342 6.74037 35.339 6.81748 35.4284C6.8946 35.5178 6.99026 35.5897 7.09797 35.6392C7.20567 35.6887 7.32289 35.7147 7.44166 35.7154H12.7393C12.9811 35.7152 13.2148 35.6296 13.3986 35.474C13.5823 35.3184 13.704 35.1031 13.7417 34.8668L15.1361 26.1109C15.1739 25.8747 15.2956 25.6596 15.4794 25.5042C15.6631 25.3488 15.8968 25.2633 16.1385 25.2631H19.2569C21.6331 25.26 23.93 24.417 25.7336 22.8861C27.5372 21.3551 28.7288 19.2369 29.0937 16.9134C29.6337 13.5037 27.9001 10.3995 24.9329 8.86609C24.9261 9.22938 24.8941 9.59172 24.8369 9.95072C24.4707 12.273 23.2786 14.3897 21.4753 15.9195C19.6721 17.4493 17.3761 18.2916 15.0009 18.2948H10.1209C9.8793 18.2949 9.6458 18.3803 9.4622 18.5355C9.2786 18.6908 9.157 18.9058 9.1193 19.1419Z" fill="#0070E0"/>
<path d="M7.59288 28.7469H1.42408C1.30507 28.7463 1.18757 28.7204 1.07961 28.6708C0.971649 28.6212 0.875759 28.5492 0.798459 28.4596C0.721169 28.3701 0.664299 28.2651 0.631719 28.1518C0.599139 28.0385 0.591629 27.9196 0.609679 27.8032L4.76648 1.72257C4.80385 1.48621 4.92529 1.27082 5.10893 1.11523C5.29257 0.959631 5.52633 0.874051 5.76808 0.873901H16.3601C21.3753 0.873901 25.0217 4.48549 24.9361 8.86103C23.6012 8.17955 22.1188 7.82986 20.6169 7.84215H11.7865C11.5447 7.84221 11.3108 7.92763 11.1269 8.08304C10.943 8.23846 10.8212 8.45368 10.7833 8.69003L9.1193 19.1416L7.59288 28.7469Z" fill="#003087"/>
</g>
</svg>
